<?xml version="1.0" standalone="no"?>
<!DOCTYPE svg PUBLIC "-//W3C//DTD SVG 20010904//EN"
 "http://www.w3.org/TR/2001/REC-SVG-20010904/DTD/svg10.dtd">
<svg version="1.0" xmlns="http://www.w3.org/2000/svg"
 width="431.000000pt" height="431.000000pt" viewBox="0 0 431.000000 431.000000"
 preserveAspectRatio="xMidYMid meet">
<metadata>
Created by potrace 1.14, written by Peter Selinger 2001-2017
</metadata>
<g transform="translate(0.000000,431.000000) scale(0.100000,-0.100000)"
fill="#000000" stroke="none">
<path d="M463 3345 c-15 -7 -39 -24 -52 -39 -38 -41 -32 -85 21 -154 23 -31
46 -58 51 -60 4 -2 7 -8 7 -14 0 -5 6 -15 13 -23 17 -18 34 -40 102 -130 32
-44 63 -84 67 -90 38 -48 86 -113 94 -126 5 -9 23 -34 41 -55 18 -21 76 -97
129 -169 141 -188 224 -298 237 -315 10 -13 41 -54 153 -205 8 -11 18 -25 22
-30 20 -29 68 -55 102 -55 34 0 109 42 110 63 0 4 8 15 18 26 20 21 45 53 103
131 23 30 44 57 48 60 3 3 26 32 50 65 25 33 57 76 73 95 16 19 32 40 36 45 4
6 31 40 60 76 28 37 52 72 52 78 0 6 5 11 10 11 6 0 16 11 22 25 6 14 16 25
23 25 21 0 31 -83 28 -240 -2 -85 -3 -159 -3 -165 1 -5 2 -221 3 -479 l3 -469
25 -19 c23 -18 44 -19 226 -19 110 0 211 3 224 6 13 4 33 18 44 33 19 25 20
45 23 332 1 168 4 310 6 316 3 8 102 12 333 12 399 2 440 7 583 67 85 36 142
75 216 149 122 122 175 252 190 461 5 71 5 77 0 110 -2 17 -7 57 -11 90 -11
99 -73 239 -145 331 -26 34 -133 121 -185 151 -52 30 -178 79 -230 88 -92 17
-211 20 -719 20 l-559 0 -63 -70 c-35 -38 -64 -76 -64 -83 0 -7 -7 -15 -15
-18 -8 -4 -27 -28 -42 -55 -14 -27 -30 -49 -35 -49 -5 0 -14 -13 -19 -30 -6
-16 -15 -30 -20 -30 -5 0 -20 -17 -33 -37 -13 -21 -32 -48 -42 -60 -11 -12
-29 -35 -41 -50 -12 -15 -30 -37 -41 -49 -11 -11 -22 -30 -26 -41 -3 -11 -20
-35 -36 -53 -16 -18 -27 -36 -25 -41 3 -4 -7 -17 -22 -29 -16 -12 -32 -30 -38
-40 -24 -44 -94 -110 -109 -104 -9 3 -16 10 -16 15 0 6 -51 76 -113 157 -63
81 -140 183 -173 227 -32 44 -66 89 -76 100 -15 19 -97 128 -143 191 -54 75
-118 144 -133 146 -82 7 -296 3 -319 -7z m2844 -428 c122 -23 220 -164 216
-312 -3 -78 -15 -127 -44 -174 -18 -28 -35 -51 -40 -51 -4 0 -14 -6 -22 -14
-21 -21 -97 -53 -147 -61 -56 -10 -725 -12 -750 -3 -17 6 -18 24 -19 309 0
166 2 306 5 311 6 10 747 5 801 -5z"/>
<path d="M424 1899 l-36 -37 -1 -294 c0 -161 2 -300 4 -308 2 -8 14 -26 27
-40 22 -25 23 -25 186 -25 144 0 166 2 184 18 26 24 39 80 32 145 -3 28 -2 52
2 52 4 0 3 11 -2 25 -6 15 -6 27 0 30 5 3 6 13 3 22 -7 18 -9 81 -2 87 2 2 2
46 -1 96 -3 51 -2 94 3 97 4 2 5 9 2 14 -4 5 -7 29 -9 55 -2 33 -10 52 -29 72
-26 26 -28 26 -177 27 l-150 1 -36 -37z"/>
</g>
</svg>
