<?xml version="1.0" standalone="no"?>
<!DOCTYPE svg PUBLIC "-//W3C//DTD SVG 20010904//EN"
 "http://www.w3.org/TR/2001/REC-SVG-20010904/DTD/svg10.dtd">
<svg version="1.0" xmlns="http://www.w3.org/2000/svg"
 width="513.000000pt" height="513.000000pt" viewBox="0 0 513.000000 513.000000"
 preserveAspectRatio="xMidYMid meet">
<metadata>
Created by potrace 1.14, written by Peter Selinger 2001-2017
</metadata>
<g transform="translate(0.000000,513.000000) scale(0.100000,-0.100000)"
fill="#000000" stroke="none">
<path d="M2970 3666 c-129 -48 -224 -118 -430 -316 -182 -175 -197 -187 -211
-173 -10 10 37 194 80 311 53 143 33 186 -45 98 -21 -24 -77 -76 -124 -116
-47 -40 -112 -96 -145 -125 -122 -107 -273 -228 -365 -295 -171 -122 -250
-150 -313 -111 -19 12 -43 38 -53 59 -27 57 -9 129 76 317 61 132 73 169 73
212 1 98 -61 131 -173 93 -115 -39 -161 -71 -350 -239 -92 -81 -107 -81 -83 3
47 162 47 163 35 190 -16 36 -60 61 -107 61 -34 0 -57 -11 -136 -64 -147 -100
-238 -181 -354 -314 -55 -64 -91 -94 -101 -84 -4 3 48 130 97 236 56 122 65
165 37 182 -24 15 -51 -17 -89 -107 -20 -49 -60 -142 -89 -206 -60 -136 -99
-281 -83 -306 5 -10 21 -18 35 -20 20 -2 34 7 64 45 257 318 365 427 509 511
93 54 109 58 134 33 24 -24 21 -38 -37 -161 -113 -244 -121 -264 -110 -283 22
-40 53 -20 214 141 154 153 284 257 385 308 60 31 84 30 115 -2 20 -19 24 -31
19 -52 -6 -26 -10 -35 -54 -117 -36 -69 -88 -198 -101 -253 -22 -96 3 -173 76
-228 33 -25 46 -29 103 -29 52 1 78 7 121 29 44 23 237 150 285 188 115 91
263 218 330 283 11 11 42 40 68 64 l47 45 -24 -90 c-45 -165 -86 -271 -171
-439 -75 -148 -134 -241 -267 -417 -133 -176 -212 -304 -314 -504 -118 -231
-167 -398 -144 -483 14 -53 63 -91 116 -91 36 0 45 7 115 79 59 62 86 101 126
182 86 174 246 578 343 865 88 259 142 363 269 514 141 167 486 455 600 499
100 40 132 21 132 -78 1 -156 -82 -288 -225 -355 -76 -36 -93 -40 -229 -55
-103 -12 -137 -31 -161 -91 -14 -36 -14 -45 -2 -75 15 -36 51 -60 102 -68 40
-6 128 29 203 81 104 73 196 113 384 167 238 70 349 120 586 267 79 49 144 88
145 86 1 -2 8 -25 15 -53 7 -27 32 -95 55 -150 57 -132 59 -140 46 -180 -12
-36 -51 -74 -120 -115 -46 -28 -80 -75 -80 -112 0 -14 12 -38 26 -53 23 -25
30 -27 75 -23 77 8 126 47 171 138 21 41 52 88 70 103 32 28 107 67 158 82 47
14 309 143 397 195 161 96 333 215 339 234 4 12 0 24 -11 32 -15 11 -28 5 -94
-40 -186 -127 -426 -259 -655 -360 -136 -60 -162 -63 -192 -18 -37 54 -106
241 -111 303 -6 65 5 92 49 119 42 25 85 10 104 -37 16 -37 10 -58 -29 -100
-11 -12 -17 -29 -14 -37 10 -26 47 -18 83 18 85 85 15 239 -106 238 -49 -1
-107 -27 -127 -58 -20 -32 -86 -78 -256 -180 -173 -105 -275 -154 -411 -199
-57 -19 -120 -42 -140 -50 -45 -19 -61 -19 -80 0 -18 18 -14 29 30 102 53 88
74 162 70 252 -4 117 -39 162 -124 160 -20 0 -53 -6 -72 -13z m-223 -630 c22
-22 -97 -106 -150 -106 -78 0 -45 98 38 112 28 5 106 1 112 -6z m1286 -78 c5
-17 -10 -58 -30 -80 -23 -26 -81 -42 -98 -28 -23 19 3 58 60 91 57 33 62 34
68 17z m-2019 -384 c-15 -80 -240 -653 -328 -834 -44 -91 -128 -206 -156 -213
-49 -13 -80 21 -80 88 0 35 84 254 139 363 87 171 339 563 387 601 35 28 44
27 38 -5z"/>
</g>
</svg>
